<svg xmlns="http://www.w3.org/2000/svg" xmlns:xlink="http://www.w3.org/1999/xlink" width="1920" zoomAndPan="magnify" viewBox="0 0 1440 809.999993" height="1080" preserveAspectRatio="xMidYMid meet" version="1.0"><defs><g/></defs><g fill="#0dcaf0" fill-opacity="0.4"><g transform="translate(255.424417, 455.734449)"><g><path d="M 80.75 0 L 60.671875 0 L 60.671875 -30.671875 L 27.96875 -30.671875 L 27.96875 0 L 7.890625 0 L 7.890625 -78.953125 L 27.96875 -78.953125 L 27.96875 -46.46875 L 60.671875 -46.46875 L 60.671875 -78.953125 L 80.75 -78.953125 Z M 80.75 0 "/></g></g></g><g fill="#0dcaf0" fill-opacity="0.4"><g transform="translate(349.82244, 455.734449)"><g><path d="M 45.34375 -79.625 C 57.59375 -79.625 67.773438 -75.804688 75.890625 -68.171875 C 84.015625 -60.546875 88.078125 -51.019531 88.078125 -39.59375 C 88.078125 -28.082031 84 -18.453125 75.84375 -10.703125 C 67.6875 -2.960938 57.515625 0.90625 45.328125 0.90625 C 33.148438 0.90625 23 -2.945312 14.875 -10.65625 C 6.757812 -18.363281 2.703125 -28.007812 2.703125 -39.59375 C 2.703125 -51.09375 6.757812 -60.640625 14.875 -68.234375 C 23 -75.828125 33.15625 -79.625 45.34375 -79.625 Z M 45.5625 -62.8125 C 39.394531 -62.8125 34.128906 -60.570312 29.765625 -56.09375 C 25.410156 -51.625 23.234375 -46.082031 23.234375 -39.46875 C 23.234375 -32.851562 25.429688 -27.269531 29.828125 -22.71875 C 34.222656 -18.175781 39.46875 -15.90625 45.5625 -15.90625 C 51.65625 -15.90625 56.820312 -18.175781 61.0625 -22.71875 C 65.3125 -27.269531 67.4375 -32.851562 67.4375 -39.46875 C 67.4375 -46.082031 65.3125 -51.625 61.0625 -56.09375 C 56.820312 -60.570312 51.65625 -62.8125 45.5625 -62.8125 Z M 45.5625 -62.8125 "/></g></g></g><g fill="#0dcaf0" fill-opacity="0.4"><g transform="translate(446.363305, 455.734449)"><g><path d="M 68.234375 -62.8125 L 44.4375 -62.8125 L 44.4375 0 L 24.359375 0 L 24.359375 -62.8125 L 0.796875 -62.8125 L 0.796875 -79.0625 L 68.234375 -79.0625 Z M 68.234375 -62.8125 "/></g></g></g><g fill="#0dcaf0" fill-opacity="0.4"><g transform="translate(521.024625, 455.734449)"><g><path d="M 69.703125 -63.15625 L 27.96875 -63.15625 L 27.96875 -47.484375 L 65.640625 -47.484375 L 65.640625 -31.6875 L 27.96875 -31.6875 L 27.96875 -15.796875 L 70.9375 -15.796875 L 70.9375 0 L 7.890625 0 L 7.890625 -78.953125 L 69.703125 -78.953125 Z M 69.703125 -63.15625 "/></g></g></g><g fill="#0dcaf0" fill-opacity="0.4"><g transform="translate(602.791169, 455.734449)"><g><path d="M 27.96875 -16.796875 L 61.46875 -16.796875 L 61.46875 0 L 7.890625 0 L 7.890625 -78.953125 L 27.96875 -78.953125 Z M 27.96875 -16.796875 "/></g></g></g><g fill="#0dcaf0" fill-opacity="0.4"><g transform="translate(671.700665, 455.734449)"><g/></g></g><g fill="#0dcaf0" fill-opacity="0.4"><g transform="translate(703.617915, 455.734449)"><g><path d="M 80.75 0 L 60.671875 0 L 60.671875 -30.671875 L 27.96875 -30.671875 L 27.96875 0 L 7.890625 0 L 7.890625 -78.953125 L 27.96875 -78.953125 L 27.96875 -46.46875 L 60.671875 -46.46875 L 60.671875 -78.953125 L 80.75 -78.953125 Z M 80.75 0 "/></g></g></g><g fill="#0dcaf0" fill-opacity="0.4"><g transform="translate(798.015921, 455.734449)"><g><path d="M 69.703125 -63.15625 L 27.96875 -63.15625 L 27.96875 -47.484375 L 65.640625 -47.484375 L 65.640625 -31.6875 L 27.96875 -31.6875 L 27.96875 -15.796875 L 70.9375 -15.796875 L 70.9375 0 L 7.890625 0 L 7.890625 -78.953125 L 69.703125 -78.953125 Z M 69.703125 -63.15625 "/></g></g></g><g fill="#0dcaf0" fill-opacity="0.4"><g transform="translate(879.782442, 455.734449)"><g><path d="M 27.96875 -16.796875 L 61.46875 -16.796875 L 61.46875 0 L 7.890625 0 L 7.890625 -78.953125 L 27.96875 -78.953125 Z M 27.96875 -16.796875 "/></g></g></g><g fill="#0dcaf0" fill-opacity="0.4"><g transform="translate(948.691938, 455.734449)"><g><path d="M 7.890625 -78.953125 L 42.296875 -78.953125 C 52.367188 -78.953125 60.1875 -76.5625 65.75 -71.78125 C 71.3125 -67.007812 74.09375 -60.222656 74.09375 -51.421875 C 74.09375 -42.179688 71.3125 -35.003906 65.75 -29.890625 C 60.1875 -24.773438 52.367188 -22.21875 42.296875 -22.21875 L 27.96875 -22.21875 L 27.96875 0 L 7.890625 0 Z M 27.96875 -63.15625 L 27.96875 -38 L 41.28125 -38 C 45.71875 -38 49.140625 -39.085938 51.546875 -41.265625 C 53.953125 -43.453125 55.15625 -46.613281 55.15625 -50.75 C 55.15625 -54.8125 53.953125 -57.894531 51.546875 -60 C 49.140625 -62.101562 45.71875 -63.15625 41.28125 -63.15625 Z M 27.96875 -63.15625 "/></g></g></g><g fill="#0dcaf0" fill-opacity="0.4"><g transform="translate(1031.135125, 455.734449)"><g><path d="M 69.703125 -63.15625 L 27.96875 -63.15625 L 27.96875 -47.484375 L 65.640625 -47.484375 L 65.640625 -31.6875 L 27.96875 -31.6875 L 27.96875 -15.796875 L 70.9375 -15.796875 L 70.9375 0 L 7.890625 0 L 7.890625 -78.953125 L 69.703125 -78.953125 Z M 69.703125 -63.15625 "/></g></g></g><g fill="#0dcaf0" fill-opacity="0.4"><g transform="translate(1112.901692, 455.734449)"><g><path d="M 55.484375 0 L 43.765625 -22.21875 L 27.96875 -22.21875 L 27.96875 0 L 7.890625 0 L 7.890625 -78.953125 L 43.1875 -78.953125 C 53.644531 -78.953125 61.726562 -76.5625 67.4375 -71.78125 C 73.15625 -67.007812 76.015625 -60.222656 76.015625 -51.421875 C 76.015625 -39.242188 71.238281 -30.785156 61.6875 -26.046875 L 78.265625 0 Z M 27.96875 -38 L 43.1875 -38 C 47.550781 -38 50.9375 -39.085938 53.34375 -41.265625 C 55.75 -43.453125 56.953125 -46.613281 56.953125 -50.75 C 56.953125 -54.8125 55.75 -57.894531 53.34375 -60 C 50.9375 -62.101562 47.550781 -63.15625 43.1875 -63.15625 L 27.96875 -63.15625 Z M 27.96875 -38 "/></g></g></g><g fill="#0000ff" fill-opacity="1"><g transform="translate(250.439965, 450.749997)"><g><path d="M 80.75 0 L 60.671875 0 L 60.671875 -30.671875 L 27.96875 -30.671875 L 27.96875 0 L 7.890625 0 L 7.890625 -78.953125 L 27.96875 -78.953125 L 27.96875 -46.46875 L 60.671875 -46.46875 L 60.671875 -78.953125 L 80.75 -78.953125 Z M 80.75 0 "/></g></g></g><g fill="#0000ff" fill-opacity="1"><g transform="translate(344.837988, 450.749997)"><g><path d="M 45.34375 -79.625 C 57.59375 -79.625 67.773438 -75.804688 75.890625 -68.171875 C 84.015625 -60.546875 88.078125 -51.019531 88.078125 -39.59375 C 88.078125 -28.082031 84 -18.453125 75.84375 -10.703125 C 67.6875 -2.960938 57.515625 0.90625 45.328125 0.90625 C 33.148438 0.90625 23 -2.945312 14.875 -10.65625 C 6.757812 -18.363281 2.703125 -28.007812 2.703125 -39.59375 C 2.703125 -51.09375 6.757812 -60.640625 14.875 -68.234375 C 23 -75.828125 33.15625 -79.625 45.34375 -79.625 Z M 45.5625 -62.8125 C 39.394531 -62.8125 34.128906 -60.570312 29.765625 -56.09375 C 25.410156 -51.625 23.234375 -46.082031 23.234375 -39.46875 C 23.234375 -32.851562 25.429688 -27.269531 29.828125 -22.71875 C 34.222656 -18.175781 39.46875 -15.90625 45.5625 -15.90625 C 51.65625 -15.90625 56.820312 -18.175781 61.0625 -22.71875 C 65.3125 -27.269531 67.4375 -32.851562 67.4375 -39.46875 C 67.4375 -46.082031 65.3125 -51.625 61.0625 -56.09375 C 56.820312 -60.570312 51.65625 -62.8125 45.5625 -62.8125 Z M 45.5625 -62.8125 "/></g></g></g><g fill="#0000ff" fill-opacity="1"><g transform="translate(441.378854, 450.749997)"><g><path d="M 68.234375 -62.8125 L 44.4375 -62.8125 L 44.4375 0 L 24.359375 0 L 24.359375 -62.8125 L 0.796875 -62.8125 L 0.796875 -79.0625 L 68.234375 -79.0625 Z M 68.234375 -62.8125 "/></g></g></g><g fill="#0000ff" fill-opacity="1"><g transform="translate(516.040173, 450.749997)"><g><path d="M 69.703125 -63.15625 L 27.96875 -63.15625 L 27.96875 -47.484375 L 65.640625 -47.484375 L 65.640625 -31.6875 L 27.96875 -31.6875 L 27.96875 -15.796875 L 70.9375 -15.796875 L 70.9375 0 L 7.890625 0 L 7.890625 -78.953125 L 69.703125 -78.953125 Z M 69.703125 -63.15625 "/></g></g></g><g fill="#0000ff" fill-opacity="1"><g transform="translate(597.806717, 450.749997)"><g><path d="M 27.96875 -16.796875 L 61.46875 -16.796875 L 61.46875 0 L 7.890625 0 L 7.890625 -78.953125 L 27.96875 -78.953125 Z M 27.96875 -16.796875 "/></g></g></g><g fill="#0000ff" fill-opacity="1"><g transform="translate(666.716213, 450.749997)"><g/></g></g><g fill="#0000ff" fill-opacity="1"><g transform="translate(698.633463, 450.749997)"><g><path d="M 80.75 0 L 60.671875 0 L 60.671875 -30.671875 L 27.96875 -30.671875 L 27.96875 0 L 7.890625 0 L 7.890625 -78.953125 L 27.96875 -78.953125 L 27.96875 -46.46875 L 60.671875 -46.46875 L 60.671875 -78.953125 L 80.75 -78.953125 Z M 80.75 0 "/></g></g></g><g fill="#0000ff" fill-opacity="1"><g transform="translate(793.031469, 450.749997)"><g><path d="M 69.703125 -63.15625 L 27.96875 -63.15625 L 27.96875 -47.484375 L 65.640625 -47.484375 L 65.640625 -31.6875 L 27.96875 -31.6875 L 27.96875 -15.796875 L 70.9375 -15.796875 L 70.9375 0 L 7.890625 0 L 7.890625 -78.953125 L 69.703125 -78.953125 Z M 69.703125 -63.15625 "/></g></g></g><g fill="#0000ff" fill-opacity="1"><g transform="translate(874.79799, 450.749997)"><g><path d="M 27.96875 -16.796875 L 61.46875 -16.796875 L 61.46875 0 L 7.890625 0 L 7.890625 -78.953125 L 27.96875 -78.953125 Z M 27.96875 -16.796875 "/></g></g></g><g fill="#0000ff" fill-opacity="1"><g transform="translate(943.707486, 450.749997)"><g><path d="M 7.890625 -78.953125 L 42.296875 -78.953125 C 52.367188 -78.953125 60.1875 -76.5625 65.75 -71.78125 C 71.3125 -67.007812 74.09375 -60.222656 74.09375 -51.421875 C 74.09375 -42.179688 71.3125 -35.003906 65.75 -29.890625 C 60.1875 -24.773438 52.367188 -22.21875 42.296875 -22.21875 L 27.96875 -22.21875 L 27.96875 0 L 7.890625 0 Z M 27.96875 -63.15625 L 27.96875 -38 L 41.28125 -38 C 45.71875 -38 49.140625 -39.085938 51.546875 -41.265625 C 53.953125 -43.453125 55.15625 -46.613281 55.15625 -50.75 C 55.15625 -54.8125 53.953125 -57.894531 51.546875 -60 C 49.140625 -62.101562 45.71875 -63.15625 41.28125 -63.15625 Z M 27.96875 -63.15625 "/></g></g></g><g fill="#0000ff" fill-opacity="1"><g transform="translate(1026.150674, 450.749997)"><g><path d="M 69.703125 -63.15625 L 27.96875 -63.15625 L 27.96875 -47.484375 L 65.640625 -47.484375 L 65.640625 -31.6875 L 27.96875 -31.6875 L 27.96875 -15.796875 L 70.9375 -15.796875 L 70.9375 0 L 7.890625 0 L 7.890625 -78.953125 L 69.703125 -78.953125 Z M 69.703125 -63.15625 "/></g></g></g><g fill="#0000ff" fill-opacity="1"><g transform="translate(1107.917241, 450.749997)"><g><path d="M 55.484375 0 L 43.765625 -22.21875 L 27.96875 -22.21875 L 27.96875 0 L 7.890625 0 L 7.890625 -78.953125 L 43.1875 -78.953125 C 53.644531 -78.953125 61.726562 -76.5625 67.4375 -71.78125 C 73.15625 -67.007812 76.015625 -60.222656 76.015625 -51.421875 C 76.015625 -39.242188 71.238281 -30.785156 61.6875 -26.046875 L 78.265625 0 Z M 27.96875 -38 L 43.1875 -38 C 47.550781 -38 50.9375 -39.085938 53.34375 -41.265625 C 55.75 -43.453125 56.953125 -46.613281 56.953125 -50.75 C 56.953125 -54.8125 55.75 -57.894531 53.34375 -60 C 50.9375 -62.101562 47.550781 -63.15625 43.1875 -63.15625 L 27.96875 -63.15625 Z M 27.96875 -38 "/></g></g></g></svg>